<svg xmlns:rdf="http://www.w3.org/1999/02/22-rdf-syntax-ns#" xmlns="http://www.w3.org/2000/svg" xml:space="preserve" viewBox="0 0 55.027256 53.341872" height="53.342" width="55.027" version="1.1" y="0px" x="0px" xmlns:cc="http://creativecommons.org/ns#" xmlns:dc="http://purl.org/dc/elements/1.1/"><style type="text/css">
	.st0{fill:#0166CE;}
	.st1{fill:#FF0000;}
	.st2{fill:#8EC9FF;}
</style><g transform="translate(-40.773 -43.693)"><path fill="#0166ce" class="st0" d="m95.3 65.2c-0.2 0.7-0.3 0.8-0.4 0.8s-0.2-0.2-0.2-0.3c-0.2-0.3-0.4-0.1-0.4-0.1-0.2 0.1 0.1 1 0.1 2.2 0.4 2.8-1 7.4-1.3 8.6-0.5 1.1-1.2 1.2-1.6 2.9-0.4 0.4-2.1 3.4-3 4.3-0.1 0.3-2.4 3.6-3.4 4.7s-4.9 4.3-5.5 4.5c-0.7 0.5-3.3 1.1-4.8 2-0.8 0.7-3.8 0.9-4.7 1.2-0.9 0.4-1.7 0.2-2.6 0.4-0.5 0.4-5.4 0.5-5.8 0.6-0.7 0.2-7.1-0.5-7.7-1.1-0.2-0.2-0.8-0.2-0.7-0.7 0.1-0.4 1.5 0.3 2.1 0 0.4-0.2 0.3 0 0.6-0.2 0.1 0-0.2-0.1-0.5-0.2-0.4 0.1-0.5-0.3-1-0.3-0.7-0.1-1.5-0.5-2.1-0.8-1-0.4-3-1.6-3.6-2-0.7-0.3-2.2-1-2.7-1.5-0.6-0.5-2.2-3.4-2.4-3.9-0.8-0.9-1-3.2-1.1-3.9 0-0.2-0.1-0.4-0.1-0.6 0-0.3-0.2-1.2-0.3-2.1-0.2-0.8-0.5-2.1-0.6-2.2s-0.1 0-0.3-0.1c-0.4-0.1-0.4-0.9-0.5-1.1-0.1-1.4 0.1-2.8 0.2-3.6 0.1-0.7 1-4.6 1.5-5.8 0.3-0.8 0.9-3.1 1.7-4.8 0.7-1.4 2-3.6 2.8-4.3 0.7-0.7 4.4-4.1 6.8-6.9 1.2-1.3 5.1-3.3 8.4-4.7 3.2-1.4 4.5-1.5 4.9-1.4 0.2 0 2.3-0.1 2.9-0.3 0.5-0.1 3.5-0.8 3.8-0.8 0 0 1.6 0.1 1.9 0 0.6-0.1 5.6 0.9 6.1 1 0.9 0.3 4.9 1.9 5.3 2.1 0.8 0.5 2 1.9 2.9 2.8 1 0.9 3.4 4.9 3.8 5.8 0.4 1 1.6 3.4 2 6.8-0.4 0.5-0.3 2.2-0.5 3m-38-10.5-1.2 0.2-0.1 0.1l-0.9 0.6c-0.7 0.4-1.3 0.8-1.7 1.6-0.2 0.5-0.4 1-0.7 1.5-0.3 0.7-0.7 1.3-0.9 2.1 0 0.8 0.5 1.4 1.1 1.9 1.7 0.9 4.1 0.2 5.6-0.9l0.6 0.3c0.3 0.1 0.5 0.2 0.7 0.4 0 1.3-1 2.1-2 3-0.8 0.6-1.6 1.3-1.9 2.2v0.1 0.1c0.1 2 1.3 3.8 3.2 4.9 1.3 1.1 2.1 2.9 2.1 4.8 0 0.3 0 0.7-0.1 1.1-0.2 0.2-0.4 0.4-0.6 0.7-0.4 0.5-0.7 0.9-1.2 1.1-0.7-0.1-1.2-0.9-1.6-1.5l-0.1-0.2c-0.9-0.9-1.9-0.5-2.8-0.2l-0.8 0.2c-1.1 0.6-1.5 1.9-1.9 3l-0.1 0.5c-0.4 0.9 0 1.5 0.3 2 0.2 0.4 0.5 0.7 0.4 1.1v0.2l0.2 0.1c0.6 0.2 1.1 0.5 1.6 0.8 0.9 0.6 1.9 1.1 3.1 0.9 1.4 0.3 2.8 0.2 4-0.5 2.6-1.3 6.3-3.4 7.7-7 0.6-1.1 0.5-2.4 0.6-3.6l0.1-1v-0.3c0-1-0.1-1.8-0.6-2.5-0.3-0.5-0.6-1-0.7-1.5-0.3-0.6-0.9-1-1.4-1.3s-0.9-0.6-1.2-1.1c0-0.4-0.1-0.6-0.1-0.9 0-0.4 0.2-0.9 0.5-1.4 0.2-0.4 0.4-0.9 0.5-1.3l0.1-0.2c0.2-0.5 0.4-1.2 0.8-1.4 0.8 0.3 1.5 0.6 2.1 1 0.7 0.4 1.4 0.4 2.2 0.7l3.4 0.4c4.6 0 7.4-1.1 10.4-3.3l0.1-0.1v-0.4c-1.1-2.3-3.3-3.3-5.5-4.2l-1.3-0.5c-1.7-0.5-3.6-0.1-5.3 0.2l-1.3 0.2c-0.6 0.2-1.3 0.4-1.9 0.6-0.8 0.3-1.6 0.6-2.5 0.7-1-0.2-1.6-1-2.1-1.9-0.3-0.4-0.5-0.8-0.8-1.2-2.2-2-5.5-1.4-8.1-0.9m22.3 11.9c-1.3 0.1-2.3 0-3.7 0.3-0.5 0.1-0.9 0.1-1.5 0.1-1.2 0-2.5 0.1-3.6 0.8-0.3 0.5-0.4 1-0.4 1.4 0 0.8 0.4 1.5 0.7 2.2 0.2 0.5 0.5 1 0.6 1.4 0.1 1.8 0.2 2.4 0.2 3.9 0 0.8-0.5 2.4-0.5 3.3v1.6 0.5 0.5c0 1.4 0 2.7 0.9 3.9 0.9 1.7 2.9 2.3 4.5 2.3 3.6-0.8 5.6-2.3 6.1-4.7v-0.3c0-0.4-0.2-0.8-0.6-1.1-0.2-0.6-0.8-0.8-1.3-0.9-0.3-0.1-0.5-0.2-0.7-0.3-0.3-0.6-0.4-1.2-0.4-1.9v-0.5-0.3c0-0.1 1.9-7.7 1.9-7.7 0.1-0.4 0.3-0.8 0.5-1.3 0.3-0.5 0.6-1.1 0.6-1.8v-0.5c0-0.5-0.5-0.6-0.9-0.7h-0.1-0.1c-0.3 0-0.6-0.1-0.9-0.2-0.5 0-0.9-0.1-1.3 0"/></g><path d="m14.327 13.307c-1.3 1.5-1.8 3-1.5 4.4 0.1 0.6 0.8 1.1 1.4 1 0.9 0.1 1.6-0.3 2.3-0.7 0.5-0.3 0.9-0.5 1.4-0.6 0.3 0.2 0.6 0.3 0.9 0.4 0.8 0.2 1.2 0.4 1.3 1.1 0.1 0.2 0.1 0.4 0.1 0.6 0 1-0.8 1.7-1.7 2.4s-1.8 1.4-2 2.6c-0.1 0.2-0.1 0.4-0.1 0.6 0 1.3 1.1 2.2 2 3 0.4 0.4 0.9 0.7 1.2 1.1 0.9 1.1 1.8 2.8 1.8 4.6 0 0.6-0.1 1.3-0.4 1.9-0.6 1.2-1.9 1.6-2.9 1.7-0.6 0-0.9-0.5-1.3-0.9-0.2-0.3-0.5-0.6-0.8-0.8-1-0.3-2.1 0-2.9 0.7-0.5 0.9-0.8 1.7-0.8 2.5 0 0.6 0.2 1.2 0.6 1.6 0.9 1.4 2.5 2.2 4.3 2.1 0.3 0 0.6-0.1 0.9-0.1 0.4-0.1 0.7-0.1 1-0.1h0.1 0.1c2.5-0.4 4.7-1.6 6.6-3.5 1.4-1.8 2.9-4.1 2.9-6.7 0-0.8-0.1-1.6-0.4-2.4-0.3-1.5-1.4-2.4-2.5-3.3-0.5-0.4-0.9-0.8-1.3-1.2-0.3-0.4-0.4-0.8-0.4-1.2 0-0.8 0.5-1.7 1.1-2.5 0.2-0.3 0.4-0.7 0.6-1 0.3-0.6 0.5-1.3 0.5-1.9 0-1.6-0.8-3.1-1.1-3.7-1.3-2.2-3.8-3.2-5.1-3.6-2.7 0.1-4.6 0.7-5.9 1.9"/><path d="m36.727 23.807c-0.8 0.1-1.5 0.2-2.3 0.1h-0.1-0.1c-0.4 0.1-0.9 0.1-1.3 0.1-0.5 0-1.1 0-1.6 0.2h-0.1v0.1c-0.7 1.2-0.2 2.5 0.2 3.6 0.2 0.5 0.4 1 0.5 1.5 0.4 1.8 0.2 3.7-0.1 5.5l-0.1 0.7v0.1c-0.2 2.3-0.5 5.2 0.9 7.1 1.4 1.2 3.8 1.4 5.4 0.6 1.6-0.2 2.9-1.8 3.2-3.1v-0.1-0.1c-0.3-0.8-1.1-0.7-1.6-0.6h-0.7c-0.2 0-0.3-0.2-0.4-0.6-0.1-0.1-0.1-0.3-0.2-0.4-0.1-0.7-0.1-1.4-0.1-2 0-2.1 0.5-4.2 1-6.2l0.3-1.4c0.1-0.5 0.3-0.9 0.6-1.4 0.3-0.6 0.7-1.2 0.7-1.9 0-0.4-0.2-0.9-0.6-1.4-1.1-0.8-2.3-0.6-3.5-0.4"/><path fill="#f00" class="st1" d="m14.927 14.107-0.1 0.1c-0.5 0.9-1 1.9-0.4 3.1l0.1 0.2h0.2c0.7 0.1 1.2-0.3 1.7-0.6 0.3-0.2 0.5-0.4 0.8-0.5 1.2-0.4 2.4 0 3.6 1.2 0.2 0.4 0.4 1 0.4 1.6 0 0.4 0 0.7-0.2 1-0.1 1.2-1.1 2-2 2.9-0.5 0.4-0.9 0.8-1.3 1.3l-0.1 0.1v0.1 0.2c0 0.5 0.1 1 0.5 1.4 2.4 2 4.6 4.2 4.7 7.3-0.1 2.3-1.8 4.6-4 5.4-1.7 0-2.8-0.5-3.3-1.6v-0.1h-0.1c-0.3-0.2-0.7-0.3-1-0.1-0.3 0.1-0.6 0.4-0.7 0.7s-0.2 0.5-0.2 0.8c0 0.7 0.4 1.3 0.6 1.5 0.9 0.7 1.9 1.3 3.2 1.3 2.1-0.1 4-0.8 6.2-2.5l0.7-0.8c1.4-1.6 2.8-3.3 2.8-5.5v-0.4l-0.1-0.9c-0.1-1.1-0.2-2.2-1-3.1l-0.3-0.2c-1.1-0.7-2.3-1.4-2.7-2.7-0.2-0.4-0.2-0.7-0.2-1.1 0-1.1 0.8-2.2 1.5-3.2l0.2-0.3c0.3-0.5 0.4-1 0.4-1.5 0-1.1-0.5-2.2-0.9-3-0.3-0.8-1-1.9-2-2.2-2-1.4-5-1.3-7 0.1"/><path fill="#f00" class="st1" d="m36.327 25.007c-0.6 0.1-1.2 0.1-1.7 0.1h-0.6c-0.7 0-1.3 0-1.8 0.5l-0.1 0.1s1.1 3.2 1.2 3.2c0.1 0.7 0.1 1.3 0.1 2 0 1.2-0.1 2.5-0.3 3.7-0.1 1.1-0.3 2.2-0.3 3.3v1c0 1.2 0 2.6 1.4 3.4 1.5 0.5 3.3 0.1 5.1-1l0.2-0.1v-0.7l-0.5-0.1c-0.7-0.1-1.4-0.3-1.6-0.9-0.3-1-0.4-1.9-0.4-2.9 0-1.8 0.4-3.5 0.7-5.3 0 0 0.3-1.8 0.4-1.9l1.5-4.3-0.3-0.1c-0.9-0.1-2 0-3 0"/><path fill="#8ec9ff" class="st2" d="m38.527 16.207v-0.1c-1.2-0.3-2.5-0.5-3.8-0.4l-0.9 0.1c-0.3 0-0.6 0.1-0.9 0.2v0.1c-0.1 1.7 0.2 2.7 0.2 2.7v0.1c1.8 0.3 3.5 0.2 5.1-0.2v-0.1c0.2 0 0.4-1.1 0.3-2.4"/><path d="m43.627 17.607c-0.1-0.4-0.2-0.9-0.7-1.2-1.4-0.8-2.8-1.7-4.5-2.3-2-0.6-3.9 0-5.8 0.5-0.8 0.2-1.7 0.5-2.6 0.6h-0.1l-1.8 1.1c-0.1 0.1-0.2 0.2-0.4 0.3-0.3 0.1-0.6 0.3-0.6 0.6-0.1 0.2 0 0.4 0.2 0.7 3.6 2.8 8.7 3.5 13.1 1.8h-0.1c0.3-0.1 0.6-0.3 0.9-0.5 0.4-0.4 0.7-0.5 1.1-0.2l0.1 0.1 0.1-0.1c0.8 0 1.1-0.6 1.1-1.4m-2.7 0.1-0.1 0.1c-0.8 0.4-1.6 0.7-2.4 0.9-1.6 0.4-3.4 0.5-5.1 0.2-0.4-0.1-0.7-0.1-1.1-0.2l-0.5-0.2c-0.7-0.2-1.4-0.5-2-0.9l-0.3-0.2 0.3-0.2c0.9-0.8 2.1-1.1 3.3-1.3 0.3-0.1 0.6-0.1 0.9-0.1l0.9-0.1c1.3-0.1 2.6 0 3.8 0.4 0.8 0.2 1.5 0.5 2.2 0.9 0.2 0.2 0.2 0.5 0.1 0.7"/></svg>
